<?xml version="1.0"?>
<svg xmlns="http://www.w3.org/2000/svg" xmlns:xlink="http://www.w3.org/1999/xlink" xmlns:svgjs="http://svgjs.com/svgjs" version="1.1" width="512" height="512" x="0" y="0" viewBox="0 0 512 512" style="enable-background:new 0 0 512 512" xml:space="preserve" class=""><g><linearGradient xmlns="http://www.w3.org/2000/svg" id="SVGID_1_" gradientUnits="userSpaceOnUse" x1="256" x2="256" y1="476" y2="36"><stop stop-opacity="1" stop-color="#009efd" offset="0"/><stop stop-opacity="1" stop-color="#009efd" offset="0"/><stop stop-opacity="1" stop-color="#ee3465" offset="0.39768339768339767"/><stop stop-opacity="1" stop-color="#ee3465" offset="1"/></linearGradient><g xmlns="http://www.w3.org/2000/svg"><g><path d="m256 356c-11.046 0-20 8.954-20 20s8.954 20 20 20 20-8.954 20-20-8.954-20-20-20zm-20-40h40v-160h-40zm266.961 68.321-195.962-319.938-.095-.154c-11.048-17.676-30.077-28.229-50.904-28.229s-39.856 10.553-50.904 28.229l-196.057 320.092c-5.913 9.498-9.039 20.451-9.039 31.679 0 33.084 26.916 60 60 60h392c33.084 0 60-26.916 60-60 0-11.228-3.126-22.181-9.039-31.679zm-50.961 51.679h-392c-11.028 0-20-8.972-20-20 0-3.759 1.043-7.414 3.016-10.57l196.04-320.064c3.696-5.866 10.024-9.366 16.944-9.366 6.919 0 13.246 3.499 16.943 9.363l195.947 319.913.095.154c1.973 3.156 3.016 6.811 3.016 10.57-.001 11.028-8.973 20-20.001 20z" fill="url(#SVGID_1_)" data-original="url(#SVGID_1_)" style=""/></g></g></g></svg>
